<?xml version="1.0" encoding="UTF-8" standalone="no"?>
<!DOCTYPE svg PUBLIC "-//W3C//DTD SVG 1.1//EN"
 "http://www.w3.org/Graphics/SVG/1.1/DTD/svg11.dtd">
<!-- Generated by graphviz version 2.43.0 (0)
 -->
<!-- Title: Demo Pages: 1 -->
<svg width="702pt" height="527pt"
 viewBox="0.00 0.00 701.87 526.77" xmlns="http://www.w3.org/2000/svg" xmlns:xlink="http://www.w3.org/1999/xlink">
<g id="graph0" class="graph" transform="scale(1 1) rotate(0) translate(4 522.77)">
<title>Demo</title>
<polygon fill="white" stroke="transparent" points="-4,4 -4,-522.77 697.87,-522.77 697.87,4 -4,4"/>
<!-- 1 -->
<g id="node1" class="node">
<title>1</title>
<ellipse fill="none" stroke="black" cx="62.93" cy="-259.38" rx="62.87" ry="37.45"/>
<text text-anchor="middle" x="62.93" y="-270.68" font-family="Times,serif" font-size="14.00">1</text>
<text text-anchor="middle" x="62.93" y="-255.68" font-family="Times,serif" font-size="14.00">Sensor 1</text>
<text text-anchor="middle" x="62.93" y="-240.68" font-family="Times,serif" font-size="14.00">freq 2, dim 1</text>
</g>
<!-- 2 -->
<g id="node2" class="node">
<title>2</title>
<ellipse fill="none" stroke="black" cx="206.93" cy="-259.38" rx="62.87" ry="37.45"/>
<text text-anchor="middle" x="206.93" y="-270.68" font-family="Times,serif" font-size="14.00">2</text>
<text text-anchor="middle" x="206.93" y="-255.68" font-family="Times,serif" font-size="14.00">Sensor 2</text>
<text text-anchor="middle" x="206.93" y="-240.68" font-family="Times,serif" font-size="14.00">freq 3, dim 1</text>
</g>
<!-- 3 -->
<g id="node3" class="node">
<title>3</title>
<ellipse fill="none" stroke="black" cx="490.93" cy="-259.38" rx="62.87" ry="37.45"/>
<text text-anchor="middle" x="490.93" y="-270.68" font-family="Times,serif" font-size="14.00">3</text>
<text text-anchor="middle" x="490.93" y="-255.68" font-family="Times,serif" font-size="14.00">Sensor 3</text>
<text text-anchor="middle" x="490.93" y="-240.68" font-family="Times,serif" font-size="14.00">freq 5, dim 4</text>
</g>
<!-- 4 -->
<g id="node4" class="node">
<title>4</title>
<ellipse fill="none" stroke="black" cx="630.93" cy="-148.43" rx="62.87" ry="37.45"/>
<text text-anchor="middle" x="630.93" y="-159.73" font-family="Times,serif" font-size="14.00">4</text>
<text text-anchor="middle" x="630.93" y="-144.73" font-family="Times,serif" font-size="14.00">Sensor 4</text>
<text text-anchor="middle" x="630.93" y="-129.73" font-family="Times,serif" font-size="14.00">freq 7, dim 3</text>
</g>
<!-- 5 -->
<g id="node5" class="node">
<title>5</title>
<ellipse fill="none" stroke="black" cx="348.93" cy="-37.48" rx="62.87" ry="37.45"/>
<text text-anchor="middle" x="348.93" y="-48.78" font-family="Times,serif" font-size="14.00">5</text>
<text text-anchor="middle" x="348.93" y="-33.78" font-family="Times,serif" font-size="14.00">Sensor 5</text>
<text text-anchor="middle" x="348.93" y="-18.78" font-family="Times,serif" font-size="14.00">freq 2, dim 2</text>
</g>
<!-- 6 -->
<g id="node6" class="node">
<title>6</title>
<ellipse fill="none" stroke="black" cx="277.93" cy="-370.34" rx="58.88" ry="37.45"/>
<text text-anchor="middle" x="277.93" y="-381.64" font-family="Times,serif" font-size="14.00">6</text>
<text text-anchor="middle" x="277.93" y="-366.64" font-family="Times,serif" font-size="14.00">Org unit 1</text>
<text text-anchor="middle" x="277.93" y="-351.64" font-family="Times,serif" font-size="14.00">some type 1</text>
</g>
<!-- 6&#45;&gt;1 -->
<g id="edge1" class="edge">
<title>6&#45;&gt;1</title>
<path fill="none" stroke="black" d="M232.6,-346.36C199.58,-329.63 154.63,-306.85 119.29,-288.94"/>
<polygon fill="black" stroke="black" points="120.57,-285.67 110.06,-284.27 117.4,-291.91 120.57,-285.67"/>
</g>
<!-- 6&#45;&gt;2 -->
<g id="edge2" class="edge">
<title>6&#45;&gt;2</title>
<path fill="none" stroke="black" d="M255.86,-335.46C249.18,-325.21 241.75,-313.81 234.75,-303.06"/>
<polygon fill="black" stroke="black" points="237.63,-301.08 229.24,-294.61 231.77,-304.9 237.63,-301.08"/>
</g>
<!-- 11 -->
<g id="node11" class="node">
<title>11</title>
<ellipse fill="none" stroke="black" cx="348.93" cy="-259.38" rx="61.54" ry="37.45"/>
<text text-anchor="middle" x="348.93" y="-270.68" font-family="Times,serif" font-size="14.00">11</text>
<text text-anchor="middle" x="348.93" y="-255.68" font-family="Times,serif" font-size="14.00">Org unit 6</text>
<text text-anchor="middle" x="348.93" y="-240.68" font-family="Times,serif" font-size="14.00">Secret object</text>
</g>
<!-- 6&#45;&gt;11 -->
<g id="edge10" class="edge">
<title>6&#45;&gt;11</title>
<path fill="none" stroke="black" d="M300.01,-335.46C306.69,-325.21 314.11,-313.81 321.12,-303.06"/>
<polygon fill="black" stroke="black" points="324.1,-304.9 326.63,-294.61 318.23,-301.08 324.1,-304.9"/>
</g>
<!-- 7 -->
<g id="node7" class="node">
<title>7</title>
<ellipse fill="none" stroke="black" cx="348.93" cy="-481.29" rx="58.88" ry="37.45"/>
<text text-anchor="middle" x="348.93" y="-492.59" font-family="Times,serif" font-size="14.00">7</text>
<text text-anchor="middle" x="348.93" y="-477.59" font-family="Times,serif" font-size="14.00">Org unit 2</text>
<text text-anchor="middle" x="348.93" y="-462.59" font-family="Times,serif" font-size="14.00">some type 2</text>
</g>
<!-- 7&#45;&gt;6 -->
<g id="edge3" class="edge">
<title>7&#45;&gt;6</title>
<path fill="none" stroke="black" d="M326.86,-446.41C320.11,-436.06 312.61,-424.55 305.54,-413.71"/>
<polygon fill="black" stroke="black" points="308.39,-411.66 299.99,-405.19 302.52,-415.48 308.39,-411.66"/>
</g>
<!-- 9 -->
<g id="node9" class="node">
<title>9</title>
<ellipse fill="none" stroke="black" cx="490.93" cy="-370.34" rx="58.88" ry="37.45"/>
<text text-anchor="middle" x="490.93" y="-381.64" font-family="Times,serif" font-size="14.00">9</text>
<text text-anchor="middle" x="490.93" y="-366.64" font-family="Times,serif" font-size="14.00">Org unit 4</text>
<text text-anchor="middle" x="490.93" y="-351.64" font-family="Times,serif" font-size="14.00">some type 4</text>
</g>
<!-- 7&#45;&gt;9 -->
<g id="edge4" class="edge">
<title>7&#45;&gt;9</title>
<path fill="none" stroke="black" d="M385.87,-451.95C404.13,-437.93 426.34,-420.9 445.62,-406.1"/>
<polygon fill="black" stroke="black" points="447.88,-408.78 453.69,-399.91 443.62,-403.23 447.88,-408.78"/>
</g>
<!-- 8 -->
<g id="node8" class="node">
<title>8</title>
<ellipse fill="none" stroke="black" cx="630.93" cy="-259.38" rx="58.88" ry="37.45"/>
<text text-anchor="middle" x="630.93" y="-270.68" font-family="Times,serif" font-size="14.00">8</text>
<text text-anchor="middle" x="630.93" y="-255.68" font-family="Times,serif" font-size="14.00">Org unit 3</text>
<text text-anchor="middle" x="630.93" y="-240.68" font-family="Times,serif" font-size="14.00">some type 3</text>
</g>
<!-- 8&#45;&gt;4 -->
<g id="edge7" class="edge">
<title>8&#45;&gt;4</title>
<path fill="none" stroke="black" d="M630.93,-221.8C630.93,-213.63 630.93,-204.85 630.93,-196.32"/>
<polygon fill="black" stroke="black" points="634.43,-196.1 630.93,-186.1 627.43,-196.1 634.43,-196.1"/>
</g>
<!-- 9&#45;&gt;3 -->
<g id="edge6" class="edge">
<title>9&#45;&gt;3</title>
<path fill="none" stroke="black" d="M490.93,-332.75C490.93,-324.58 490.93,-315.8 490.93,-307.27"/>
<polygon fill="black" stroke="black" points="494.43,-307.06 490.93,-297.06 487.43,-307.06 494.43,-307.06"/>
</g>
<!-- 9&#45;&gt;8 -->
<g id="edge5" class="edge">
<title>9&#45;&gt;8</title>
<path fill="none" stroke="black" d="M527.72,-340.71C545.72,-326.7 567.54,-309.71 586.48,-294.98"/>
<polygon fill="black" stroke="black" points="588.65,-297.72 594.39,-288.82 584.35,-292.2 588.65,-297.72"/>
</g>
<!-- 10 -->
<g id="node10" class="node">
<title>10</title>
<ellipse fill="none" stroke="black" cx="348.93" cy="-148.43" rx="58.88" ry="37.45"/>
<text text-anchor="middle" x="348.93" y="-159.73" font-family="Times,serif" font-size="14.00">10</text>
<text text-anchor="middle" x="348.93" y="-144.73" font-family="Times,serif" font-size="14.00">Org unit 5</text>
<text text-anchor="middle" x="348.93" y="-129.73" font-family="Times,serif" font-size="14.00">some type 5</text>
</g>
<!-- 10&#45;&gt;5 -->
<g id="edge8" class="edge">
<title>10&#45;&gt;5</title>
<path fill="none" stroke="black" d="M348.93,-110.85C348.93,-102.67 348.93,-93.89 348.93,-85.37"/>
<polygon fill="black" stroke="black" points="352.43,-85.15 348.93,-75.15 345.43,-85.15 352.43,-85.15"/>
</g>
<!-- 11&#45;&gt;10 -->
<g id="edge9" class="edge">
<title>11&#45;&gt;10</title>
<path fill="none" stroke="black" d="M348.93,-221.8C348.93,-213.63 348.93,-204.85 348.93,-196.32"/>
<polygon fill="black" stroke="black" points="352.43,-196.1 348.93,-186.1 345.43,-196.1 352.43,-196.1"/>
</g>
</g>
</svg>
