<?xml version="1.0" encoding="UTF-8" standalone="no"?>
<!DOCTYPE svg PUBLIC "-//W3C//DTD SVG 1.1//EN"
 "http://www.w3.org/Graphics/SVG/1.1/DTD/svg11.dtd">
<!-- Generated by graphviz version 2.43.0 (0)
 -->
<!-- Title: Demo Pages: 1 -->
<svg width="562pt" height="416pt"
 viewBox="0.00 0.00 561.87 415.81" xmlns="http://www.w3.org/2000/svg" xmlns:xlink="http://www.w3.org/1999/xlink">
<g id="graph0" class="graph" transform="scale(1 1) rotate(0) translate(4 411.81)">
<title>Demo</title>
<polygon fill="white" stroke="transparent" points="-4,4 -4,-411.81 557.87,-411.81 557.87,4 -4,4"/>
<!-- 1 -->
<g id="node1" class="node">
<title>1</title>
<ellipse fill="none" stroke="black" cx="62.93" cy="-148.43" rx="62.87" ry="37.45"/>
<text text-anchor="middle" x="62.93" y="-159.73" font-family="Times,serif" font-size="14.00">1</text>
<text text-anchor="middle" x="62.93" y="-144.73" font-family="Times,serif" font-size="14.00">Sensor 1</text>
<text text-anchor="middle" x="62.93" y="-129.73" font-family="Times,serif" font-size="14.00">freq 2, dim 1</text>
</g>
<!-- 2 -->
<g id="node2" class="node">
<title>2</title>
<ellipse fill="none" stroke="black" cx="206.93" cy="-148.43" rx="62.87" ry="37.45"/>
<text text-anchor="middle" x="206.93" y="-159.73" font-family="Times,serif" font-size="14.00">2</text>
<text text-anchor="middle" x="206.93" y="-144.73" font-family="Times,serif" font-size="14.00">Sensor 2</text>
<text text-anchor="middle" x="206.93" y="-129.73" font-family="Times,serif" font-size="14.00">freq 3, dim 1</text>
</g>
<!-- 3 -->
<g id="node3" class="node">
<title>3</title>
<ellipse fill="none" stroke="black" cx="350.93" cy="-148.43" rx="62.87" ry="37.45"/>
<text text-anchor="middle" x="350.93" y="-159.73" font-family="Times,serif" font-size="14.00">3</text>
<text text-anchor="middle" x="350.93" y="-144.73" font-family="Times,serif" font-size="14.00">Sensor 3</text>
<text text-anchor="middle" x="350.93" y="-129.73" font-family="Times,serif" font-size="14.00">freq 5, dim 4</text>
</g>
<!-- 4 -->
<g id="node4" class="node">
<title>4</title>
<ellipse fill="none" stroke="black" cx="490.93" cy="-37.48" rx="62.87" ry="37.45"/>
<text text-anchor="middle" x="490.93" y="-48.78" font-family="Times,serif" font-size="14.00">4</text>
<text text-anchor="middle" x="490.93" y="-33.78" font-family="Times,serif" font-size="14.00">Sensor 4</text>
<text text-anchor="middle" x="490.93" y="-18.78" font-family="Times,serif" font-size="14.00">freq 7, dim 3</text>
</g>
<!-- 5 -->
<g id="node5" class="node">
<title>5</title>
<ellipse fill="none" stroke="black" cx="490.93" cy="-259.38" rx="62.87" ry="37.45"/>
<text text-anchor="middle" x="490.93" y="-270.68" font-family="Times,serif" font-size="14.00">5</text>
<text text-anchor="middle" x="490.93" y="-255.68" font-family="Times,serif" font-size="14.00">Sensor 5</text>
<text text-anchor="middle" x="490.93" y="-240.68" font-family="Times,serif" font-size="14.00">freq 2, dim 2</text>
</g>
<!-- 6 -->
<g id="node6" class="node">
<title>6</title>
<ellipse fill="none" stroke="black" cx="206.93" cy="-259.38" rx="58.88" ry="37.45"/>
<text text-anchor="middle" x="206.93" y="-270.68" font-family="Times,serif" font-size="14.00">6</text>
<text text-anchor="middle" x="206.93" y="-255.68" font-family="Times,serif" font-size="14.00">Org unit 1</text>
<text text-anchor="middle" x="206.93" y="-240.68" font-family="Times,serif" font-size="14.00">some type 1</text>
</g>
<!-- 6&#45;&gt;1 -->
<g id="edge1" class="edge">
<title>6&#45;&gt;1</title>
<path fill="none" stroke="black" d="M169.85,-230.33C151.4,-216.37 128.92,-199.36 109.34,-184.54"/>
<polygon fill="black" stroke="black" points="111.23,-181.59 101.15,-178.34 107.01,-187.17 111.23,-181.59"/>
</g>
<!-- 6&#45;&gt;2 -->
<g id="edge2" class="edge">
<title>6&#45;&gt;2</title>
<path fill="none" stroke="black" d="M206.93,-221.8C206.93,-213.63 206.93,-204.85 206.93,-196.32"/>
<polygon fill="black" stroke="black" points="210.43,-196.1 206.93,-186.1 203.43,-196.1 210.43,-196.1"/>
</g>
<!-- 7 -->
<g id="node7" class="node">
<title>7</title>
<ellipse fill="none" stroke="black" cx="278.93" cy="-370.34" rx="58.88" ry="37.45"/>
<text text-anchor="middle" x="278.93" y="-381.64" font-family="Times,serif" font-size="14.00">7</text>
<text text-anchor="middle" x="278.93" y="-366.64" font-family="Times,serif" font-size="14.00">Org unit 2</text>
<text text-anchor="middle" x="278.93" y="-351.64" font-family="Times,serif" font-size="14.00">some type 2</text>
</g>
<!-- 7&#45;&gt;6 -->
<g id="edge3" class="edge">
<title>7&#45;&gt;6</title>
<path fill="none" stroke="black" d="M256.55,-335.46C249.71,-325.11 242.1,-313.59 234.93,-302.75"/>
<polygon fill="black" stroke="black" points="237.74,-300.65 229.31,-294.24 231.9,-304.51 237.74,-300.65"/>
</g>
<!-- 9 -->
<g id="node9" class="node">
<title>9</title>
<ellipse fill="none" stroke="black" cx="350.93" cy="-259.38" rx="58.88" ry="37.45"/>
<text text-anchor="middle" x="350.93" y="-270.68" font-family="Times,serif" font-size="14.00">9</text>
<text text-anchor="middle" x="350.93" y="-255.68" font-family="Times,serif" font-size="14.00">Org unit 4</text>
<text text-anchor="middle" x="350.93" y="-240.68" font-family="Times,serif" font-size="14.00">some type 4</text>
</g>
<!-- 7&#45;&gt;9 -->
<g id="edge4" class="edge">
<title>7&#45;&gt;9</title>
<path fill="none" stroke="black" d="M301.32,-335.46C308.16,-325.11 315.77,-313.59 322.93,-302.75"/>
<polygon fill="black" stroke="black" points="325.97,-304.51 328.56,-294.24 320.13,-300.65 325.97,-304.51"/>
</g>
<!-- 8 -->
<g id="node8" class="node">
<title>8</title>
<ellipse fill="none" stroke="black" cx="490.93" cy="-148.43" rx="58.88" ry="37.45"/>
<text text-anchor="middle" x="490.93" y="-159.73" font-family="Times,serif" font-size="14.00">8</text>
<text text-anchor="middle" x="490.93" y="-144.73" font-family="Times,serif" font-size="14.00">Org unit 3</text>
<text text-anchor="middle" x="490.93" y="-129.73" font-family="Times,serif" font-size="14.00">some type 3</text>
</g>
<!-- 8&#45;&gt;4 -->
<g id="edge7" class="edge">
<title>8&#45;&gt;4</title>
<path fill="none" stroke="black" d="M490.93,-110.85C490.93,-102.67 490.93,-93.89 490.93,-85.37"/>
<polygon fill="black" stroke="black" points="494.43,-85.15 490.93,-75.15 487.43,-85.15 494.43,-85.15"/>
</g>
<!-- 9&#45;&gt;3 -->
<g id="edge6" class="edge">
<title>9&#45;&gt;3</title>
<path fill="none" stroke="black" d="M350.93,-221.8C350.93,-213.63 350.93,-204.85 350.93,-196.32"/>
<polygon fill="black" stroke="black" points="354.43,-196.1 350.93,-186.1 347.43,-196.1 354.43,-196.1"/>
</g>
<!-- 9&#45;&gt;8 -->
<g id="edge5" class="edge">
<title>9&#45;&gt;8</title>
<path fill="none" stroke="black" d="M387.72,-229.76C405.72,-215.74 427.54,-198.76 446.48,-184.03"/>
<polygon fill="black" stroke="black" points="448.65,-186.77 454.39,-177.86 444.35,-181.24 448.65,-186.77"/>
</g>
<!-- 10 -->
<g id="node10" class="node">
<title>10</title>
<ellipse fill="none" stroke="black" cx="490.93" cy="-370.34" rx="58.88" ry="37.45"/>
<text text-anchor="middle" x="490.93" y="-381.64" font-family="Times,serif" font-size="14.00">10</text>
<text text-anchor="middle" x="490.93" y="-366.64" font-family="Times,serif" font-size="14.00">Org unit 5</text>
<text text-anchor="middle" x="490.93" y="-351.64" font-family="Times,serif" font-size="14.00">some type 5</text>
</g>
<!-- 10&#45;&gt;5 -->
<g id="edge8" class="edge">
<title>10&#45;&gt;5</title>
<path fill="none" stroke="black" d="M490.93,-332.75C490.93,-324.58 490.93,-315.8 490.93,-307.27"/>
<polygon fill="black" stroke="black" points="494.43,-307.06 490.93,-297.06 487.43,-307.06 494.43,-307.06"/>
</g>
</g>
</svg>
