<?xml version="1.0" encoding="us-ascii" standalone="no"?><svg xmlns="http://www.w3.org/2000/svg" xmlns:xlink="http://www.w3.org/1999/xlink" contentStyleType="text/css" height="615px" preserveAspectRatio="none" style="width:602px;height:615px;background:#FFFFFF;" version="1.1" viewBox="0 0 602 615" width="602px" zoomAndPan="magnify"><defs/><g><!--class OrgTreeEdge--><g id="elem_OrgTreeEdge"><rect codeLine="1" fill="#F1F1F1" height="129.4844" id="OrgTreeEdge" rx="2.5" ry="2.5" style="stroke:#181818;stroke-width:0.5;" width="137" x="7" y="289"/><ellipse cx="26.5" cy="305" fill="#ADD1B2" rx="11" ry="11" style="stroke:#181818;stroke-width:1.0;"/><path d="M28.8438,300.6719 C27.9063,300.2344 27.3125,300.0938 26.4375,300.0938 C23.8125,300.0938 21.8125,302.1719 21.8125,304.8906 L21.8125,306.0156 C21.8125,308.5938 23.9219,310.4844 26.8125,310.4844 C28.0313,310.4844 29.1875,310.1875 29.9375,309.6406 C30.5156,309.2344 30.8438,308.7813 30.8438,308.3906 C30.8438,307.9375 30.4531,307.5469 29.9844,307.5469 C29.7656,307.5469 29.5625,307.625 29.375,307.8125 C28.9219,308.2969 28.9219,308.2969 28.7344,308.3906 C28.3125,308.6563 27.625,308.7813 26.8594,308.7813 C24.8125,308.7813 23.5156,307.6875 23.5156,305.9844 L23.5156,304.8906 C23.5156,303.1094 24.7656,301.7969 26.5,301.7969 C27.0781,301.7969 27.6875,301.9531 28.1563,302.2031 C28.6406,302.4844 28.8125,302.7031 28.9063,303.1094 C28.9688,303.5156 29,303.6406 29.1406,303.7656 C29.2813,303.9063 29.5156,304.0156 29.7344,304.0156 C30,304.0156 30.2656,303.875 30.4375,303.6563 C30.5469,303.5 30.5781,303.3125 30.5781,302.8906 L30.5781,301.4688 C30.5781,301.0313 30.5625,300.9063 30.4688,300.75 C30.3125,300.4844 30.0313,300.3438 29.7344,300.3438 C29.4375,300.3438 29.2344,300.4375 29.0156,300.75 L28.8438,300.6719 Z " fill="#000000"/><text fill="#000000" font-family="sans-serif" font-size="14" lengthAdjust="spacing" textLength="95" x="41.5" y="309.8467">OrgTreeEdge</text><line style="stroke:#181818;stroke-width:0.5;" x1="8" x2="143" y1="321" y2="321"/><rect fill="none" height="6" style="stroke:#C82930;stroke-width:1.0;" width="6" x="15" y="331.6484"/><text fill="#000000" font-family="sans-serif" font-size="14" lengthAdjust="spacing" textLength="60" x="27" y="337.9951">bigint id</text><rect fill="none" height="6" style="stroke:#C82930;stroke-width:1.0;" width="6" x="15" y="347.9453"/><text fill="#000000" font-family="sans-serif" font-size="14" lengthAdjust="spacing" textLength="75" x="27" y="354.292">bigint id_u</text><rect fill="none" height="6" style="stroke:#C82930;stroke-width:1.0;" width="6" x="15" y="364.2422"/><text fill="#000000" font-family="sans-serif" font-size="14" lengthAdjust="spacing" textLength="75" x="27" y="370.5889">bigint id_v</text><rect fill="none" height="6" style="stroke:#C82930;stroke-width:1.0;" width="6" x="15" y="380.5391"/><text fill="#000000" font-family="sans-serif" font-size="14" lengthAdjust="spacing" textLength="111" x="27" y="386.8857">boolean parent</text><rect fill="none" height="6" style="stroke:#C82930;stroke-width:1.0;" width="6" x="15" y="396.8359"/><text fill="#000000" font-family="sans-serif" font-size="14" lengthAdjust="spacing" textLength="68" x="27" y="403.1826">text date</text><line style="stroke:#181818;stroke-width:0.5;" x1="8" x2="143" y1="410.4844" y2="410.4844"/></g><!--class OrgTreeNode--><g id="elem_OrgTreeNode"><rect codeLine="9" fill="#F1F1F1" height="113.1875" id="OrgTreeNode" rx="2.5" ry="2.5" style="stroke:#181818;stroke-width:0.5;" width="140" x="232.5" y="7"/><ellipse cx="252.9" cy="23" fill="#ADD1B2" rx="11" ry="11" style="stroke:#181818;stroke-width:1.0;"/><path d="M255.2438,18.6719 C254.3063,18.2344 253.7125,18.0938 252.8375,18.0938 C250.2125,18.0938 248.2125,20.1719 248.2125,22.8906 L248.2125,24.0156 C248.2125,26.5938 250.3219,28.4844 253.2125,28.4844 C254.4313,28.4844 255.5875,28.1875 256.3375,27.6406 C256.9156,27.2344 257.2438,26.7813 257.2438,26.3906 C257.2438,25.9375 256.8531,25.5469 256.3844,25.5469 C256.1656,25.5469 255.9625,25.625 255.775,25.8125 C255.3219,26.2969 255.3219,26.2969 255.1344,26.3906 C254.7125,26.6563 254.025,26.7813 253.2594,26.7813 C251.2125,26.7813 249.9156,25.6875 249.9156,23.9844 L249.9156,22.8906 C249.9156,21.1094 251.1656,19.7969 252.9,19.7969 C253.4781,19.7969 254.0875,19.9531 254.5563,20.2031 C255.0406,20.4844 255.2125,20.7031 255.3063,21.1094 C255.3688,21.5156 255.4,21.6406 255.5406,21.7656 C255.6813,21.9063 255.9156,22.0156 256.1344,22.0156 C256.4,22.0156 256.6656,21.875 256.8375,21.6563 C256.9469,21.5 256.9781,21.3125 256.9781,20.8906 L256.9781,19.4688 C256.9781,19.0313 256.9625,18.9063 256.8688,18.75 C256.7125,18.4844 256.4313,18.3438 256.1344,18.3438 C255.8375,18.3438 255.6344,18.4375 255.4156,18.75 L255.2438,18.6719 Z " fill="#000000"/><text fill="#000000" font-family="sans-serif" font-size="14" lengthAdjust="spacing" textLength="96" x="268.1" y="27.8467">OrgTreeNode</text><line style="stroke:#181818;stroke-width:0.5;" x1="233.5" x2="371.5" y1="39" y2="39"/><rect fill="none" height="6" style="stroke:#C82930;stroke-width:1.0;" width="6" x="240.5" y="49.6484"/><text fill="#000000" font-family="sans-serif" font-size="14" lengthAdjust="spacing" textLength="60" x="252.5" y="55.9951">bigint id</text><rect fill="none" height="6" style="stroke:#C82930;stroke-width:1.0;" width="6" x="240.5" y="65.9453"/><text fill="#000000" font-family="sans-serif" font-size="14" lengthAdjust="spacing" textLength="69" x="252.5" y="72.292">text type</text><rect fill="none" height="6" style="stroke:#C82930;stroke-width:1.0;" width="6" x="240.5" y="82.2422"/><text fill="#000000" font-family="sans-serif" font-size="14" lengthAdjust="spacing" textLength="114" x="252.5" y="88.5889">bigint object_id</text><rect fill="none" height="6" style="stroke:#C82930;stroke-width:1.0;" width="6" x="240.5" y="98.5391"/><text fill="#000000" font-family="sans-serif" font-size="14" lengthAdjust="spacing" textLength="68" x="252.5" y="104.8857">text date</text><line style="stroke:#181818;stroke-width:0.5;" x1="233.5" x2="371.5" y1="112.1875" y2="112.1875"/></g><!--class OrgUnit--><g id="elem_OrgUnit"><rect codeLine="16" fill="#F1F1F1" height="129.4844" id="OrgUnit" rx="2.5" ry="2.5" style="stroke:#181818;stroke-width:0.5;" width="101" x="252" y="289"/><ellipse cx="273.3" cy="305" fill="#ADD1B2" rx="11" ry="11" style="stroke:#181818;stroke-width:1.0;"/><path d="M275.6438,300.6719 C274.7063,300.2344 274.1125,300.0938 273.2375,300.0938 C270.6125,300.0938 268.6125,302.1719 268.6125,304.8906 L268.6125,306.0156 C268.6125,308.5938 270.7219,310.4844 273.6125,310.4844 C274.8313,310.4844 275.9875,310.1875 276.7375,309.6406 C277.3156,309.2344 277.6438,308.7813 277.6438,308.3906 C277.6438,307.9375 277.2531,307.5469 276.7844,307.5469 C276.5656,307.5469 276.3625,307.625 276.175,307.8125 C275.7219,308.2969 275.7219,308.2969 275.5344,308.3906 C275.1125,308.6563 274.425,308.7813 273.6594,308.7813 C271.6125,308.7813 270.3156,307.6875 270.3156,305.9844 L270.3156,304.8906 C270.3156,303.1094 271.5656,301.7969 273.3,301.7969 C273.8781,301.7969 274.4875,301.9531 274.9563,302.2031 C275.4406,302.4844 275.6125,302.7031 275.7063,303.1094 C275.7688,303.5156 275.8,303.6406 275.9406,303.7656 C276.0813,303.9063 276.3156,304.0156 276.5344,304.0156 C276.8,304.0156 277.0656,303.875 277.2375,303.6563 C277.3469,303.5 277.3781,303.3125 277.3781,302.8906 L277.3781,301.4688 C277.3781,301.0313 277.3625,300.9063 277.2688,300.75 C277.1125,300.4844 276.8313,300.3438 276.5344,300.3438 C276.2375,300.3438 276.0344,300.4375 275.8156,300.75 L275.6438,300.6719 Z " fill="#000000"/><text fill="#000000" font-family="sans-serif" font-size="14" lengthAdjust="spacing" textLength="55" x="288.7" y="309.8467">OrgUnit</text><line style="stroke:#181818;stroke-width:0.5;" x1="253" x2="352" y1="321" y2="321"/><rect fill="none" height="6" style="stroke:#C82930;stroke-width:1.0;" width="6" x="260" y="331.6484"/><text fill="#000000" font-family="sans-serif" font-size="14" lengthAdjust="spacing" textLength="60" x="272" y="337.9951">bigint id</text><rect fill="none" height="6" style="stroke:#C82930;stroke-width:1.0;" width="6" x="260" y="347.9453"/><text fill="#000000" font-family="sans-serif" font-size="14" lengthAdjust="spacing" textLength="75" x="272" y="354.292">text name</text><rect fill="none" height="6" style="stroke:#C82930;stroke-width:1.0;" width="6" x="260" y="364.2422"/><text fill="#000000" font-family="sans-serif" font-size="14" lengthAdjust="spacing" textLength="69" x="272" y="370.5889">text type</text><rect fill="none" height="6" style="stroke:#C82930;stroke-width:1.0;" width="6" x="260" y="380.5391"/><text fill="#000000" font-family="sans-serif" font-size="14" lengthAdjust="spacing" textLength="64" x="272" y="386.8857">text json</text><rect fill="none" height="6" style="stroke:#C82930;stroke-width:1.0;" width="6" x="260" y="396.8359"/><text fill="#000000" font-family="sans-serif" font-size="14" lengthAdjust="spacing" textLength="68" x="272" y="403.1826">text date</text><line style="stroke:#181818;stroke-width:0.5;" x1="253" x2="352" y1="410.4844" y2="410.4844"/></g><!--class Sensor--><g id="elem_Sensor"><rect codeLine="24" fill="#F1F1F1" height="113.1875" id="Sensor" rx="2.5" ry="2.5" style="stroke:#181818;stroke-width:0.5;" width="127" x="445" y="297"/><ellipse cx="480.7" cy="313" fill="#ADD1B2" rx="11" ry="11" style="stroke:#181818;stroke-width:1.0;"/><path d="M483.0438,308.6719 C482.1063,308.2344 481.5125,308.0938 480.6375,308.0938 C478.0125,308.0938 476.0125,310.1719 476.0125,312.8906 L476.0125,314.0156 C476.0125,316.5938 478.1219,318.4844 481.0125,318.4844 C482.2313,318.4844 483.3875,318.1875 484.1375,317.6406 C484.7156,317.2344 485.0438,316.7813 485.0438,316.3906 C485.0438,315.9375 484.6531,315.5469 484.1844,315.5469 C483.9656,315.5469 483.7625,315.625 483.575,315.8125 C483.1219,316.2969 483.1219,316.2969 482.9344,316.3906 C482.5125,316.6563 481.825,316.7813 481.0594,316.7813 C479.0125,316.7813 477.7156,315.6875 477.7156,313.9844 L477.7156,312.8906 C477.7156,311.1094 478.9656,309.7969 480.7,309.7969 C481.2781,309.7969 481.8875,309.9531 482.3563,310.2031 C482.8406,310.4844 483.0125,310.7031 483.1063,311.1094 C483.1688,311.5156 483.2,311.6406 483.3406,311.7656 C483.4813,311.9063 483.7156,312.0156 483.9344,312.0156 C484.2,312.0156 484.4656,311.875 484.6375,311.6563 C484.7469,311.5 484.7781,311.3125 484.7781,310.8906 L484.7781,309.4688 C484.7781,309.0313 484.7625,308.9063 484.6688,308.75 C484.5125,308.4844 484.2313,308.3438 483.9344,308.3438 C483.6375,308.3438 483.4344,308.4375 483.2156,308.75 L483.0438,308.6719 Z " fill="#000000"/><text fill="#000000" font-family="sans-serif" font-size="14" lengthAdjust="spacing" textLength="49" x="499.3" y="317.8467">Sensor</text><line style="stroke:#181818;stroke-width:0.5;" x1="446" x2="571" y1="329" y2="329"/><rect fill="none" height="6" style="stroke:#C82930;stroke-width:1.0;" width="6" x="453" y="339.6484"/><text fill="#000000" font-family="sans-serif" font-size="14" lengthAdjust="spacing" textLength="60" x="465" y="345.9951">bigint id</text><rect fill="none" height="6" style="stroke:#C82930;stroke-width:1.0;" width="6" x="453" y="355.9453"/><text fill="#000000" font-family="sans-serif" font-size="14" lengthAdjust="spacing" textLength="101" x="465" y="362.292">bigint type_id</text><rect fill="none" height="6" style="stroke:#C82930;stroke-width:1.0;" width="6" x="453" y="372.2422"/><text fill="#000000" font-family="sans-serif" font-size="14" lengthAdjust="spacing" textLength="84" x="465" y="378.5889">bigint ch_id</text><rect fill="none" height="6" style="stroke:#C82930;stroke-width:1.0;" width="6" x="453" y="388.5391"/><text fill="#000000" font-family="sans-serif" font-size="14" lengthAdjust="spacing" textLength="68" x="465" y="394.8857">text date</text><line style="stroke:#181818;stroke-width:0.5;" x1="446" x2="571" y1="402.1875" y2="402.1875"/></g><!--class SensorType--><g id="elem_SensorType"><rect codeLine="31" fill="#F1F1F1" height="113.1875" id="SensorType" rx="2.5" ry="2.5" style="stroke:#181818;stroke-width:0.5;" width="117" x="450" y="495"/><ellipse cx="465" cy="511" fill="#ADD1B2" rx="11" ry="11" style="stroke:#181818;stroke-width:1.0;"/><path d="M467.3438,506.6719 C466.4063,506.2344 465.8125,506.0938 464.9375,506.0938 C462.3125,506.0938 460.3125,508.1719 460.3125,510.8906 L460.3125,512.0156 C460.3125,514.5938 462.4219,516.4844 465.3125,516.4844 C466.5313,516.4844 467.6875,516.1875 468.4375,515.6406 C469.0156,515.2344 469.3438,514.7813 469.3438,514.3906 C469.3438,513.9375 468.9531,513.5469 468.4844,513.5469 C468.2656,513.5469 468.0625,513.625 467.875,513.8125 C467.4219,514.2969 467.4219,514.2969 467.2344,514.3906 C466.8125,514.6563 466.125,514.7813 465.3594,514.7813 C463.3125,514.7813 462.0156,513.6875 462.0156,511.9844 L462.0156,510.8906 C462.0156,509.1094 463.2656,507.7969 465,507.7969 C465.5781,507.7969 466.1875,507.9531 466.6563,508.2031 C467.1406,508.4844 467.3125,508.7031 467.4063,509.1094 C467.4688,509.5156 467.5,509.6406 467.6406,509.7656 C467.7813,509.9063 468.0156,510.0156 468.2344,510.0156 C468.5,510.0156 468.7656,509.875 468.9375,509.6563 C469.0469,509.5 469.0781,509.3125 469.0781,508.8906 L469.0781,507.4688 C469.0781,507.0313 469.0625,506.9063 468.9688,506.75 C468.8125,506.4844 468.5313,506.3438 468.2344,506.3438 C467.9375,506.3438 467.7344,506.4375 467.5156,506.75 L467.3438,506.6719 Z " fill="#000000"/><text fill="#000000" font-family="sans-serif" font-size="14" lengthAdjust="spacing" textLength="85" x="479" y="515.8467">SensorType</text><line style="stroke:#181818;stroke-width:0.5;" x1="451" x2="566" y1="527" y2="527"/><rect fill="none" height="6" style="stroke:#C82930;stroke-width:1.0;" width="6" x="458" y="537.6484"/><text fill="#000000" font-family="sans-serif" font-size="14" lengthAdjust="spacing" textLength="60" x="470" y="543.9951">bigint id</text><rect fill="none" height="6" style="stroke:#C82930;stroke-width:1.0;" width="6" x="458" y="553.9453"/><text fill="#000000" font-family="sans-serif" font-size="14" lengthAdjust="spacing" textLength="77" x="470" y="560.292">bigint freq</text><rect fill="none" height="6" style="stroke:#C82930;stroke-width:1.0;" width="6" x="458" y="570.2422"/><text fill="#000000" font-family="sans-serif" font-size="14" lengthAdjust="spacing" textLength="74" x="470" y="576.5889">bigint dim</text><rect fill="none" height="6" style="stroke:#C82930;stroke-width:1.0;" width="6" x="458" y="586.5391"/><text fill="#000000" font-family="sans-serif" font-size="14" lengthAdjust="spacing" textLength="63" x="470" y="592.8857">text info</text><line style="stroke:#181818;stroke-width:0.5;" x1="451" x2="566" y1="600.1875" y2="600.1875"/></g><!--link OrgTreeNode to OrgTreeEdge--><g id="link_OrgTreeNode_OrgTreeEdge"><path codeLine="38" d="M232.224,100.877 C199.606,120.773 162.59,148.096 137.5,181 C113.408,212.596 98.0368,254.43 88.6262,288.87 " fill="none" id="OrgTreeNode-OrgTreeEdge" style="stroke:#181818;stroke-width:1.0;"/><text fill="#000000" font-family="sans-serif" font-size="13" lengthAdjust="spacing" textLength="134" x="149" y="201.5669">&#1057;&#1074;&#1103;&#1079;&#1099;&#1074;&#1072;&#1077;&#1090; &#1074;&#1077;&#1088;&#1096;&#1080;&#1085;&#1099;</text><text fill="#000000" font-family="sans-serif" font-size="13" lengthAdjust="spacing" textLength="155" x="138.5" y="216.6997">&#1076;&#1077;&#1088;&#1077;&#1074;&#1072; &#1086;&#1088;&#1075;. &#1089;&#1090;&#1088;&#1091;&#1082;&#1090;&#1091;&#1088;&#1099;</text></g><!--link OrgTreeNode to OrgUnit--><g id="link_OrgTreeNode_OrgUnit"><path codeLine="40" d="M302.5,120.029 C302.5,168.331 302.5,238.314 302.5,288.863 " fill="none" id="OrgTreeNode-OrgUnit" style="stroke:#181818;stroke-width:1.0;"/><text fill="#000000" font-family="sans-serif" font-size="13" lengthAdjust="spacing" textLength="112" x="314.5" y="194.0669">&#1042;&#1077;&#1088;&#1096;&#1080;&#1085;&#1072; &#1076;&#1077;&#1088;&#1077;&#1074;&#1072;</text><text fill="#000000" font-family="sans-serif" font-size="13" lengthAdjust="spacing" textLength="134" x="303.5" y="209.1997">&#1086;&#1087;&#1080;&#1089;&#1099;&#1074;&#1072;&#1077;&#1090; &#1077;&#1076;&#1080;&#1085;&#1080;&#1094;&#1091;</text><text fill="#000000" font-family="sans-serif" font-size="13" lengthAdjust="spacing" textLength="102" x="319.5" y="224.3325">&#1086;&#1088;&#1075;. &#1089;&#1090;&#1088;&#1091;&#1082;&#1090;&#1091;&#1088;&#1099;</text></g><!--link OrgTreeNode to Sensor--><g id="link_OrgTreeNode_Sensor"><path codeLine="42" d="M372.517,109.02 C398.643,128.487 426.73,153.233 446.5,181 C471.198,215.689 487.058,261.267 496.55,296.717 " fill="none" id="OrgTreeNode-Sensor" style="stroke:#181818;stroke-width:1.0;"/><text fill="#000000" font-family="sans-serif" font-size="13" lengthAdjust="spacing" textLength="112" x="478" y="201.5669">&#1042;&#1077;&#1088;&#1096;&#1080;&#1085;&#1072; &#1076;&#1077;&#1088;&#1077;&#1074;&#1072;</text><text fill="#000000" font-family="sans-serif" font-size="13" lengthAdjust="spacing" textLength="121" x="473.5" y="216.6997">&#1086;&#1087;&#1080;&#1089;&#1099;&#1074;&#1072;&#1077;&#1090; &#1089;&#1077;&#1085;&#1089;&#1086;&#1088;</text></g><!--link Sensor to SensorType--><g id="link_Sensor_SensorType"><path codeLine="44" d="M508.5,410.141 C508.5,436.625 508.5,468.218 508.5,494.719 " fill="none" id="Sensor-SensorType" style="stroke:#181818;stroke-width:1.0;"/><text fill="#000000" font-family="sans-serif" font-size="13" lengthAdjust="spacing" textLength="84" x="509.5" y="461.0669">&#1044;&#1072;&#1090;&#1095;&#1080;&#1082; &#1090;&#1080;&#1087;&#1072;</text></g><!--SRC=[dP71IiD048RlUOgXz_W0thtgmNeJGffCOqgxMvDL515i0Yha88Wlu1k4QZ0Kshx2x1ivcs3TqkQWbztvT__v_cKs6Fjf2YT9r4yGZy88uSu1S0Tn50i5SRWblAjjUTr8ASVe2vZw2GfbJXJUA0XzXSwzumHsmB4CzmKq3UfsYjQD78mmK9vbs26UYLXrqOG_GG3OeJTYb4hHWJr5aSg4eJRpfpOGppu8BbhP2UfpH-T0XmbUMZAC9vj7nM8e3SkUc-kwzaSTGe_UQQvVw4iNDAUIAfq15vL-qCzKqr8Nvu8-ZQRA681MN7uSW9xfZ4qvBNZFkIfwUwFCW4tCwo_JK2ma1wneJJKJhJTKR37UMZ_gt5Z-4DlExH-fUiQNIruvZRaj1pP4ynE6-aObfpynTG4wusrDPUyR]--></g></svg>